<svg width="214" height="119" viewBox="0 0 214 119" fill="none" xmlns="http://www.w3.org/2000/svg">
<g filter="url(#filter0_d_2045_374)">
<path d="M54.9714 42.7777C55.8156 41.0762 57.551 39.9999 59.4504 39.9999H168.862C172.59 39.9999 175.007 43.9335 173.322 47.2595L158.631 76.2595C157.779 77.9405 156.055 78.9999 154.171 78.9999H45.0623C41.3521 78.9999 38.9343 75.1013 40.5833 71.7777L54.9714 42.7777Z" fill="#C0FF01"/>
<path d="M55.4193 42.9999C56.1791 41.4686 57.741 40.4999 59.4504 40.4999H168.862C172.218 40.4999 174.393 44.0402 172.876 47.0336L158.185 76.0336C157.419 77.5464 155.867 78.4999 154.171 78.4999H45.0623C41.7231 78.4999 39.5471 74.9911 41.0312 71.9999L55.4193 42.9999Z" stroke="#C0FF01"/>
</g>
<defs>
<filter id="filter0_d_2045_374" x="0.0559082" y="-6.10352e-05" width="213.813" height="119" filterUnits="userSpaceOnUse" color-interpolation-filters="sRGB">
<feFlood flood-opacity="0" result="BackgroundImageFix"/>
<feColorMatrix in="SourceAlpha" type="matrix" values="0 0 0 0 0 0 0 0 0 0 0 0 0 0 0 0 0 0 127 0" result="hardAlpha"/>
<feOffset/>
<feGaussianBlur stdDeviation="20"/>
<feComposite in2="hardAlpha" operator="out"/>
<feColorMatrix type="matrix" values="0 0 0 0 0.752941 0 0 0 0 1 0 0 0 0 0.00392157 0 0 0 0.4 0"/>
<feBlend mode="normal" in2="BackgroundImageFix" result="effect1_dropShadow_2045_374"/>
<feBlend mode="normal" in="SourceGraphic" in2="effect1_dropShadow_2045_374" result="shape"/>
</filter>
</defs>
</svg>
