<svg width="160" height="23" viewBox="0 0 160 23" fill="none" xmlns="http://www.w3.org/2000/svg">
<g clip-path="url(#clip0_768_4471)">
<mask id="mask0_768_4471" style="mask-type:luminance" maskUnits="userSpaceOnUse" x="0" y="0" width="160" height="23">
<path d="M160 0H0V23H160V0Z" fill="white"/>
</mask>
<g mask="url(#mask0_768_4471)">
<path d="M5.79932 20.6124C1.65295 20.6124 0.388672 19.2347 0.388672 14.7055V8.29432C0.388672 3.73747 1.65295 2.38623 5.79932 2.38623H15.559C18.1371 2.38623 19.3265 4.05596 19.7306 5.06218L17.5567 7.39426C17.2527 6.67882 16.6459 5.98993 15.331 5.98993H5.82465C4.30817 5.98993 3.77734 6.57266 3.77734 8.29778V14.7355C3.77734 16.2714 4.0802 17.0434 5.82465 17.0434H15.4576C16.7979 17.0434 17.3541 16.3279 17.6602 15.639L19.8353 17.9469C19.4553 18.9543 18.2417 20.6228 15.6636 20.6228L5.79932 20.6124Z" fill="white"/>
<path d="M27.914 20.6124C24.0463 20.6124 22.6807 18.9704 22.6807 14.8428V2.38623H26.0682V14.8382C26.0682 16.3741 26.5748 17.0307 27.914 17.0307H36.4094C37.7496 17.0307 38.2551 16.3683 38.2551 14.8382V2.38623H41.6691V14.8382C41.6691 18.9704 40.2782 20.6078 36.4105 20.6078L27.914 20.6124Z" fill="white"/>
<path d="M59.5672 20.6125L53.5508 14.6547H48.0642V20.6148H44.626V2.38623H58.8326C62.5231 2.38623 63.8127 3.89672 63.8127 8.02892V9.14245C63.8127 13.592 62.2202 14.5994 57.9219 14.5994L64.3688 20.6125H59.5672ZM60.4273 8.63819C60.4273 6.86345 60.2247 6.01647 58.7335 6.01647H48.0642V11.6545H58.7335C59.9449 11.6545 60.4273 11.0972 60.4273 9.50825V8.63819Z" fill="white"/>
<path d="M69.9598 2.38623H66.5469V20.6124H69.9598V2.38623Z" fill="white"/>
<path d="M114.026 15.3472C114.026 19.214 112.51 20.6184 108.364 20.6184H96.0765C96.126 19.4263 96.2284 18.2343 96.3033 17.0412H108.136C109.981 17.0412 110.512 16.5912 110.512 15.0276C110.512 13.4917 110.007 13.014 108.212 13.014H101.158C96.9861 13.014 95.6514 11.4516 95.6514 8.11329V7.50055C95.6514 3.87146 97.0423 2.38867 101.268 2.38867H113.454C113.327 3.60721 113.176 4.79922 113.024 6.01776H101.259C99.5907 6.01776 99.1094 6.57395 99.1094 8.00482C99.1094 9.43568 99.5907 10.0173 101.259 10.0173H108.212C112.535 10.0173 114.026 11.5012 114.026 14.7068V15.3472Z" fill="white"/>
<path d="M120.095 2.38623H116.682V20.6124H120.095V2.38623Z" fill="white"/>
<path d="M128.589 20.6124V5.98993H122.243V2.38623H138.348V5.98993H132.003V20.6124H128.589Z" fill="white"/>
<path d="M147.805 20.6124V13.9105L139.613 2.38623H143.557L149.625 10.9172L155.643 2.38623H159.612L151.218 13.9105V20.6124H147.805Z" fill="white"/>
<path d="M80.988 0.923156C81.388 0.502871 81.8982 0.216857 82.4539 0.101562V2.92637C82.4602 5.03122 81.6734 7.05363 80.2645 8.55405L80.2061 8.61521C78.7745 10.0921 76.8442 10.9169 74.8351 10.9104H72.1348C72.2445 10.3278 72.518 9.79299 72.92 9.37449L80.988 0.923156Z" fill="white"/>
<path d="M80.2645 14.4462C81.6746 15.9477 82.4614 17.972 82.4539 20.0785V22.9045C81.8982 22.7887 81.3879 22.5023 80.988 22.0817L72.9233 13.6315C72.5193 13.2118 72.2446 12.6748 72.1348 12.0899H74.8318C76.8409 12.0833 78.7712 12.9082 80.2028 14.385L80.2612 14.4462" fill="white"/>
<path d="M91.199 12.0898H93.8949C93.7849 12.672 93.5119 13.2067 93.1108 13.6257L85.0461 22.0759C84.6456 22.4962 84.1351 22.7826 83.5791 22.8986V20.0785C83.5732 17.9738 84.3604 15.9517 85.7696 14.4519L85.7993 14.4208L85.828 14.3908C87.2597 12.9139 89.1899 12.0891 91.199 12.0956" fill="white"/>
<path d="M85.7696 8.55405C84.3603 7.05381 83.5731 5.03139 83.5791 2.92637V0.101562C84.1349 0.217304 84.6454 0.503235 85.0461 0.923156L93.1108 9.37449C93.5121 9.79335 93.7852 10.3281 93.8949 10.9104H91.199C89.1899 10.9169 87.2597 10.0921 85.828 8.61521L85.7696 8.55405Z" fill="white"/>
</g>
</g>
<defs>
<clipPath id="clip0_768_4471">
<rect width="160" height="23" fill="white"/>
</clipPath>
</defs>
</svg>
